HIERARCHY
ROOT Hips
{
  OFFSET 0.0 0.0 0.0
  CHANNELS 6 XPOSITION YPOSITION ZPOSITION ZROTATION XROTATION YROTATION 
  JOINT RightUpLeg
  {
    OFFSET -0.089458 -0.0866707 0.00101652
    CHANNELS 3 ZROTATION XROTATION YROTATION 
    JOINT RightLeg
    {
      OFFSET 0.0 -0.444227 0.013727
      CHANNELS 3 ZROTATION XROTATION YROTATION 
      JOINT RightFoot
      {
        OFFSET 0.00253549 -0.420924 -0.0146059
        CHANNELS 3 ZROTATION XROTATION YROTATION 
        End Site
        {
          OFFSET 0.0004 -0.0441509 0.084991
        }
      }
    }
  }
  JOINT Spine
  {
    OFFSET 0.0 0.118905 0.0
    CHANNELS 3 ZROTATION XROTATION YROTATION 
    JOINT Spine1
    {
      OFFSET 0.0 0.256574 0.00127663
      CHANNELS 3 ZROTATION XROTATION YROTATION 
      End Site
      {
        OFFSET -0.0029 0.2150836 0.02525291
      }
      JOINT RightArm
      {
        OFFSET -0.162727 -0.05365632 0.00102123
        CHANNELS 3 ZROTATION XROTATION YROTATION 
        JOINT RightForeArm
        {
          OFFSET -0.26364 0.00099144 -0.0142434
          CHANNELS 3 ZROTATION XROTATION YROTATION 
          End Site
          {
            OFFSET -0.220324 0.00085362 0.0102216
          }
        }
      }
      JOINT LeftArm
      {
        OFFSET 0.162727 -0.0536563199 0.00102123
        CHANNELS 3 ZROTATION XROTATION YROTATION 
        JOINT LeftForeArm
        {
          OFFSET 0.262597 0.00099144 -0.0142434
          CHANNELS 3 ZROTATION XROTATION YROTATION 
          End Site
          {
            OFFSET 0.220902 0.00085362 0.0102216
          }
        }
      }
    }
  }
  JOINT LeftUpLeg
  {
    OFFSET 0.089458 -0.0866707 0.00101652
    CHANNELS 3 ZROTATION XROTATION YROTATION 
    JOINT LeftLeg
    {
      OFFSET 0.0 -0.444227 0.013727
      CHANNELS 3 ZROTATION XROTATION YROTATION 
      JOINT LeftFoot
      {
        OFFSET -0.00253549 -0.420924 -0.0146059
        CHANNELS 3 ZROTATION XROTATION YROTATION 
        End Site
        {
          OFFSET -0.0004 -0.0441509 0.084991
        }
      }
    }
  }
}
MOTION
Frames: 8
Frame Time: 0.033333
0.239573784858 0.974688879183 0.338958466882 -4.4184066854 13.553321955 42.2864456422 -2.70171270238 -14.6431230333 -44.207535384 6.19892942654 25.1591145059 -38.5312656931 7.43509804367 -39.6147249408 28.4000973236 9.81720933275 -14.0621360434 -1.06416150866 -3.6179366892 22.0047026283 -0.79435334835 71.573893822 -31.3109566083 -10.0798651111 13.1076273522 9.5291529347 36.2965234193 -76.9229428101 -2.3325260367 -22.9418353182 -14.7475771163 2.89421133885 -21.7213539381 -4.05979229878 -22.7973512041 12.5719313467 14.9253857234 69.5683112251 6.01948712355 1.18471637522 -45.3274302758 17.8364806495 
0.221801009526 0.980424299046 0.354689895016 -6.03109374939 11.0879216316 57.9758751091 -1.03448017457 -12.9561986432 -51.4351152052 6.05570676295 23.8376863449 -40.4166472059 6.37500188495 -37.7730634688 25.6650283252 9.59602219422 -17.2680091275 -1.20146624022 -3.40918967303 23.6565616809 -1.09851469214 70.9600100798 -30.1433869961 -13.258490863 12.7519093927 9.77943497155 36.3518923478 -77.668205241 -3.3115598028 -21.1307526032 -16.4882457036 3.18603714756 -26.275194737 -2.18488231973 -18.9248661711 15.2447687841 11.0051072955 66.863166993 8.9995127457 -0.144214014858 -43.5300489202 17.9469248084 
0.204221276837 0.981829776113 0.369834533039 -6.70586222476 8.33353941954 71.6502826577 1.14226706969 -11.6805762921 -59.4556902343 5.6621602276 22.2500635138 -40.1988666242 5.7376248533 -35.8211900644 23.0032438415 8.17287544102 -19.764870156 -1.73870256007 -2.0429211067 24.5790094642 -2.06248298192 70.4693771012 -29.1499428115 -15.9861038562 12.2733436507 9.85220722206 35.8217638003 -78.6670384449 -4.34786150344 -19.3097268403 -17.6761914776 5.0242342195 -30.701946206 0.115951012238 -14.9912731432 17.988575302 7.51399014367 62.7196259028 10.41737464 -2.02623879653 -42.2496206773 18.0349266732 
0.184832721825 0.981573142249 0.383757973039 -6.52879085119 5.82658849413 86.7664406872 2.90101292661 -11.5232480072 -69.8561763778 5.87283912009 19.920523337 -44.8459668261 4.74996754649 -34.2496898949 20.4688184802 5.15778021258 -21.4859019495 -2.92842055475 0.924603454997 24.6833730472 -3.92288457196 70.0297246545 -28.6172222072 -18.4482077595 11.8332480955 9.66326882169 34.7304054389 -79.424800122 -4.40977332629 -18.0659630528 -18.4453322499 6.43390500946 -34.439828701 2.76708764458 -11.9640214587 21.5923624005 5.05969271968 57.6318999523 10.7345378892 -3.61203455199 -40.9332690544 18.210232016 
0.163260486936 0.980676772422 0.395748589741 -5.32122621253 2.70726756717 105.373972854 4.04679572945 -12.7176858761 -82.9334068269 5.93910390787 17.5716212814 -53.6042057007 3.16844642224 -33.5369289192 18.1655762392 1.95316132194 -22.005016817 -4.37605225547 4.06991165092 24.033565925 -5.94569461353 69.7525897289 -28.5816557046 -20.7652623505 11.7012589587 8.99442681609 33.2339109917 -79.5569574522 -3.29723689611 -18.1452461811 -18.989870789 7.27450322081 -37.0203595468 6.13850018163 -10.0957760367 26.3253488161 3.58738141106 52.2160278085 11.1112356286 -4.79308183496 -39.884517413 18.3669575367 
0.138720782351 0.977006846253 0.406269498098 -2.92742718912 -1.31433671708 123.888402713 4.97745766896 -14.8426106608 -96.5209821806 5.53502948969 15.6759398433 -60.2134314208 1.1956874733 -32.579677907 16.1421685561 0.369153395186 -21.304198427 -5.19597463042 5.43536166177 22.9144991936 -7.05328022378 69.6662834585 -28.5930945639 -22.7921978264 12.0106776272 7.50389597785 31.3429628747 -78.9751277878 -0.888103617763 -19.697440821 -19.0225873951 8.0338196197 -38.4189398171 9.34000365224 -8.74329783578 32.0822591354 2.69847647337 46.4796046416 12.5646811009 -6.22094824888 -39.1681569275 18.3828565095 
0.108386990667 0.972870524846 0.415661260612 0.187571628822 -4.55948595025 141.746656298 4.67722133607 -16.9515664633 -109.086535838 5.00478739027 13.9613224513 -61.6172333708 0.0703994134458 -31.4185901443 14.5645775654 0.712036442082 -19.6881261505 -5.16147321049 4.88295687916 21.5790708524 -7.16356216566 69.5905639814 -28.040709845 -24.1480381879 12.3867777249 5.303334532 28.8833332074 -78.2603484911 2.09046263841 -22.0860467662 -18.225757036 9.15187633683 -38.7375613117 11.5788901433 -7.852803385 39.1205983204 2.17423277415 39.9326258504 15.1476520318 -6.66988377642 -38.2893062418 18.4498657879 
0.0735205230335 0.969451427407 0.427315350898 3.26785747773 -6.05199754334 155.001307741 3.52524077688 -18.4239725408 -120.431807899 4.33782667489 12.6908560392 -59.2356761808 0.223150617818 -30.2875722895 13.3015611822 1.8381983526 -17.7518614359 -4.92534119116 3.93318022836 20.1766127422 -7.05490068616 69.1875486694 -26.8996755177 -24.8395675206 12.1289244234 3.22162435412 25.9096925315 -78.2036647512 4.73392172458 -24.5277574322 -16.9223520367 10.345241866 -38.0779665285 11.9266406871 -7.69525653406 44.8265656737 1.95844276572 34.0767221844 18.1903271372 -4.13785453081 -37.9944606357 18.7374935916 
